HIERARCHY
ROOT root
{
	OFFSET	0	13.1	24.9
	CHANNELS 6  Xposition Yposition Zposition Xrotation Yrotation Zrotation
	JOINT spine_1
	{
		OFFSET	0	9.99999	0
		CHANNELS 3  Xrotation Yrotation Zrotation
		JOINT spine_2
		{
			OFFSET	0	112	-10
			CHANNELS 3  Xrotation Yrotation Zrotation
			JOINT spine_3
			{
				OFFSET	0	206.5	19.3
				CHANNELS 3  Xrotation Yrotation Zrotation
				JOINT spine_4
				{
					OFFSET	0	110.4	14.6
					CHANNELS 3  Xrotation Yrotation Zrotation
					JOINT neck_1
					{
						OFFSET	0	71.8	-50.3
						CHANNELS 3  Xrotation Yrotation Zrotation
						JOINT neck_2
						{
							OFFSET	0	86.2	-25.8
							CHANNELS 3  Xrotation Yrotation Zrotation
							JOINT head_ee
							{
								OFFSET	0	179.8	-8.7
								CHANNELS 3  Xrotation Yrotation Zrotation
								End Site
								{
									OFFSET	1	0	0
								}
							}
						}
					}
					JOINT left_clavicle
					{
						OFFSET	-43.2	22.4	-70.8
						CHANNELS 3  Xrotation Yrotation Zrotation
						JOINT left_shoulder
						{
							OFFSET	-93.9	-5.79999	48.7
							CHANNELS 3  Xrotation Yrotation Zrotation
							JOINT left_elbow
							{
								OFFSET	-291.4	-30.8	15.2
								CHANNELS 3  Xrotation Yrotation Zrotation
								JOINT left_lowarm_twist
								{
									OFFSET	-110.7	-3.89999	13.6
									CHANNELS 3  Xrotation Yrotation Zrotation
									JOINT left_hand
									{
										OFFSET	-110.7	-3.89999	13.6
										CHANNELS 3  Xrotation Yrotation Zrotation
										JOINT left_ee
										{
											OFFSET	-80.8	-5.10001	12.1
											CHANNELS 3  Xrotation Yrotation Zrotation
											End Site
											{
												OFFSET	1	0	0
											}
										}
									}
								}
							}
						}
					}
					JOINT right_clavicle
					{
						OFFSET	43.2	22.4	-70.8
						CHANNELS 3  Xrotation Yrotation Zrotation
						JOINT right_shoulder
						{
							OFFSET	93.9	-5.79999	48.7
							CHANNELS 3  Xrotation Yrotation Zrotation
							JOINT right_elbow
							{
								OFFSET	291.4	-30.8	15.2
								CHANNELS 3  Xrotation Yrotation Zrotation
								JOINT right_lowarm_twist
								{
									OFFSET	110.7	-3.89999	13.6
									CHANNELS 3  Xrotation Yrotation Zrotation
									JOINT right_hand
									{
										OFFSET	110.7	-3.89999	13.6
										CHANNELS 3  Xrotation Yrotation Zrotation
										JOINT right_ee
										{
											OFFSET	80.8	-5.10001	12.1
											CHANNELS 3  Xrotation Yrotation Zrotation
											End Site
											{
												OFFSET	1	0	0
											}
										}
									}
								}
							}
						}
					}
				}
			}
		}
	}
	JOINT left_hip
	{
		OFFSET	-82.8	-127.5	0.300001
		CHANNELS 3  Xrotation Yrotation Zrotation
		JOINT left_knee
		{
			OFFSET	-28.2	-396.7	2.2
			CHANNELS 3  Xrotation Yrotation Zrotation
			JOINT left_ankle
			{
				OFFSET	-11.7	-411.3	35.4
				CHANNELS 3  Xrotation Yrotation Zrotation
				JOINT left_toes
				{
					OFFSET	0	-60	-88.6
					CHANNELS 3  Xrotation Yrotation Zrotation
					JOINT left_foot_ee
					{
						OFFSET	-22.5	-16.5	-42.2
						CHANNELS 3  Xrotation Yrotation Zrotation
						End Site
						{
							OFFSET	1	0	0
						}
					}
				}
			}
		}
	}
	JOINT right_hip
	{
		OFFSET	82.8	-127.5	0.300001
		CHANNELS 3  Xrotation Yrotation Zrotation
		JOINT right_knee
		{
			OFFSET	28.2	-396.7	2.2
			CHANNELS 3  Xrotation Yrotation Zrotation
			JOINT right_ankle
			{
				OFFSET	11.7	-411.3	35.4
				CHANNELS 3  Xrotation Yrotation Zrotation
				JOINT right_toes
				{
					OFFSET	0	-60	-88.6
					CHANNELS 3  Xrotation Yrotation Zrotation
					JOINT right_foot_ee
					{
						OFFSET	22.5	-16.5	-42.2
						CHANNELS 3  Xrotation Yrotation Zrotation
						End Site
						{
							OFFSET	1	0	0
						}
					}
				}
			}
		}
	}
}
MOTION
Frames: 9
Frame Time: 0.02
3102.21 736.443 -438.383 -156.546 -49.8886 -158.421 7.97993 0.0367272 0.0954356 7.97994 0.0305799 0.0975793 7.97998 0.0234335 0.0995375 7.97997 0.0388595 0.0945874 -13.8648 -4.98887 -4.53061 -13.8396 -6.73712 -5.85492 -0.0 0.0 -0.0 2.15832 19.3584 5.46956 -30.9549 -19.8028 63.2751 0.878585 -23.5196 0.182906 -7.9113 -0.344981 0.949936 -0.15492 24.3441 8.7951 -0.0 0.0 -0.0 8.3064 6.93479 -16.2319 -23.963 26.8443 -56.0822 1.56544 37.79 -0.535848 45.9411 0.69379 5.67261 1.64771 9.65308 -7.03912 0.0 0.0 0.0 30.8911 -30.4969 -8.60732 -0.751326 0.0302069 0.111342 6.057 20.1688 -0.89163 27.0246 -0.0 -0.0 -0.0 0.0 -0.0 18.915 17.0104 -0.322074 -29.0209 -0.0803209 -4.40556 12.442 -4.37784 1.75604 20.9171 -0.0 -0.0 0.0 0.0 0.0 
3122.42 735.612 -440.553 -157.155 -48.7535 -159.047 8.00342 -0.131156 -0.174741 8.00343 -0.119771 -0.182732 8.00379 -0.106304 -0.190881 8.00376 -0.135116 -0.171697 -13.2621 -5.2886 -4.68671 -13.2341 -7.14901 -6.05839 -0.0 0.0 -0.0 2.31939 19.3228 5.70811 -30.8925 -19.8235 63.6498 0.918798 -24.4721 0.19926 -7.46557 -0.322076 0.897735 -0.139257 24.0264 8.76678 -0.0 0.0 -0.0 7.95553 7.07661 -15.4904 -24.8484 26.5654 -56.0727 1.57525 37.9633 -0.541866 45.1133 0.641593 5.58043 1.67135 9.42583 -7.29836 0.0 0.0 0.0 30.5972 -29.4941 -7.99064 -0.933516 0.0373112 0.1384 12.0162 21.1855 -1.74336 30.2794 -0.0 -0.0 -0.0 0.0 -0.0 18.8781 17.4481 0.0446253 -28.8475 -0.0864805 -4.37966 12.4249 -3.81071 1.75484 20.8768 -0.0 -0.0 0.0 0.0 0.0 
3149.68 734.598 -442.2 -157.481 -47.1331 -159.321 8.16374 -0.0791313 -0.405678 8.16383 -0.0531568 -0.409891 8.16405 -0.0246615 -0.412587 8.16382 -0.0895119 -0.403514 -13.0833 -5.22523 -5.32527 -13.0316 -6.60865 -6.63561 -0.0 0.0 -0.0 2.5217 19.2928 6.00901 -30.222 -19.6775 63.3882 0.95499 -25.3172 0.214496 -7.75409 -0.336856 0.931545 -0.429887 24.136 7.13569 -0.0 0.0 -0.0 7.51267 7.18785 -14.5583 -26.7662 26.1125 -55.5585 1.51531 36.8909 -0.505439 44.1288 0.581257 5.46984 1.61171 8.37019 -7.34774 0.0 0.0 0.0 30.405 -29.586 -7.38227 -2.75292 0.103518 0.409761 13.8773 21.8239 -2.00584 32.3195 -0.0 -0.0 -0.0 0.0 -0.0 18.0141 17.9426 1.11034 -28.5745 -0.0960213 -4.33884 12.7262 -2.76823 1.79785 21.3466 -0.0 -0.0 0.0 0.0 0.0 
3174.18 736.796 -444.427 -158.146 -45.6046 -159.731 8.2154 0.104881 -0.641584 8.21561 0.145493 -0.63361 8.21366 0.188468 -0.622182 8.21313 0.0878433 -0.644138 -12.2212 -5.33082 -5.6491 -12.1554 -6.49866 -6.92828 -0.0 0.0 -0.0 2.56653 19.9162 6.10176 -29.9651 -19.4233 63.557 1.00616 -26.4922 0.236853 -8.68781 -0.385855 1.04045 -0.816836 24.1122 4.91145 -0.0 0.0 -0.0 6.97407 7.72763 -13.4159 -28.8354 25.6775 -55.9301 1.49772 36.5704 -0.49492 43.3473 0.534723 5.38134 1.63589 6.40195 -8.35216 0.0 0.0 0.0 30.3512 -29.6019 -6.70549 -4.83532 0.168666 0.72269 13.501 23.4411 -1.96885 33.6794 -0.0 -0.0 -0.0 0.0 -0.0 17.2162 18.2519 2.0992 -28.4064 -0.101798 -4.3137 12.8286 -1.51623 1.81544 21.5654 -0.0 -0.0 0.0 0.0 0.0 
3195.78 742.151 -441.357 -158.917 -45.8966 -159.937 8.20764 -0.018537 -0.771335 8.20797 0.0305811 -0.770951 8.207 0.0832965 -0.767048 8.20618 -0.0388862 -0.770577 -12.4968 -5.0418 -3.94413 -12.4825 -7.06941 -5.23198 -0.0 0.0 -0.0 2.71888 19.965 6.32886 -29.1809 -20.1476 62.7797 1.04039 -27.265 0.252328 -8.99338 -0.402276 1.07592 -0.934465 24.554 4.42527 -0.0 0.0 -0.0 7.18868 7.76799 -13.8639 -30.3697 25.67 -55.843 1.31414 33.0621 -0.390057 42.736 0.499172 5.31168 1.61834 5.28662 -8.70301 0.0 0.0 0.0 30.0536 -29.4606 -5.79003 -7.0485 0.225383 1.05758 15.5306 24.7069 -2.26314 35.2369 -0.0 -0.0 -0.0 0.0 -0.0 17.7652 17.5461 2.17119 -28.8265 -0.087222 -4.37652 11.0996 -2.84173 1.57754 21.7778 -0.0 -0.0 0.0 0.0 0.0 
3212.33 746.443 -437.95 -159.158 -46.2739 -160.252 8.13496 -0.069422 -0.970794 8.13549 -0.0075102 -0.973243 8.13473 0.060369 -0.971398 8.13342 -0.0937956 -0.968742 -12.5412 -4.92532 -2.90738 -12.5508 -7.51079 -4.211 -0.0 0.0 -0.0 2.71536 19.986 6.32443 -28.7151 -20.9882 61.9144 1.1441 -29.5416 0.301669 -9.52887 -0.43151 1.13786 -1.10528 24.43 3.4031 -0.0 0.0 -0.0 6.83752 8.22708 -13.1132 -32.0251 25.6919 -56.497 1.18487 30.4098 -0.322042 42.1117 0.463633 5.24015 1.63237 3.62959 -9.49031 0.0 0.0 0.0 30.2136 -29.1911 -4.28009 -9.98708 0.280619 1.50507 15.9227 26.6858 -2.34336 36.0574 -0.0 -0.0 -0.0 0.0 -0.0 18.551 17.2308 1.77862 -29.4027 -0.0664795 -4.46252 9.85752 -3.43253 1.4061 21.9971 -0.0 -0.0 0.0 0.0 0.0 
3224.98 748.073 -435.707 -159.544 -46.9456 -160.169 8.20346 -0.0820718 -1.22831 8.2043 -0.0037507 -1.23105 8.20294 0.0806377 -1.22841 8.20085 -0.114364 -1.22573 -12.4607 -4.57857 -2.38301 -12.4749 -7.17931 -3.60416 -0.0 0.0 -0.0 2.74937 19.9238 6.37246 -28.4624 -21.7654 61.1166 1.25106 -31.7866 0.356228 -9.36897 -0.422719 1.11939 -1.42836 24.6149 1.65413 -0.0 0.0 -0.0 6.61997 8.73415 -12.6383 -33.6014 25.613 -57.7124 1.00349 26.4313 -0.235661 41.1174 0.408653 5.12545 1.49936 0.878212 -9.71265 0.0 0.0 0.0 29.9118 -29.1088 -3.65292 -11.998 0.305159 1.81264 15.4501 28.3941 -2.30256 36.824 -0.0 -0.0 -0.0 0.0 -0.0 19.6808 18.1737 0.409468 -32.8813 0.0770374 -4.97697 9.71719 -6.20327 1.38316 23.0107 -0.0 -0.0 0.0 0.0 0.0 
3239.65 752.167 -437.511 -159.666 -47.2493 -159.67 8.30874 -0.304482 -1.55118 8.31006 -0.205171 -1.56741 8.31328 -0.100359 -1.57759 8.30997 -0.34822 -1.54196 -13.1047 -4.484 -2.49444 -13.1188 -6.97219 -3.72165 -0.0 0.0 -0.0 2.88972 18.5227 6.53376 -29.0792 -24.2228 60.4127 1.40512 -34.838 0.440869 -9.24086 -0.415714 1.10458 -1.61339 24.236 0.433488 -0.0 0.0 -0.0 6.31898 9.41714 -11.9777 -34.5324 25.5848 -58.1438 0.882604 23.6155 -0.184513 40.442 0.372453 5.04702 1.40858 -1.01307 -9.85841 0.0 0.0 0.0 29.897 -29.1046 -2.9884 -13.462 0.316227 2.03698 14.2152 29.106 -2.13795 37.1921 -0.0 -0.0 -0.0 0.0 -0.0 20.5562 20.1961 -0.498178 -34.822 0.170621 -5.25998 9.58415 -8.3532 1.36429 23.8358 -0.0 -0.0 0.0 0.0 0.0 
3253.39 756.282 -433.625 -160.023 -46.9362 -159.502 8.34811 -0.422169 -1.71089 8.34968 -0.312462 -1.73428 8.3562 -0.197667 -1.75107 8.35224 -0.471696 -1.69791 -12.996 -4.06103 -0.523007 -13.0302 -7.39657 -1.70933 -0.0 0.0 -0.0 3.20103 18.7129 7.01189 -27.8051 -23.7432 59.6388 1.43401 -35.3866 0.457488 -9.24012 -0.415674 1.1045 -1.81895 24.8216 -0.455671 -0.0 0.0 -0.0 6.21233 9.42845 -11.7535 -35.9331 25.5454 -58.7552 0.79456 21.4846 -0.150744 39.9958 0.349042 4.99496 1.32247 -2.58128 -9.90016 0.0 0.0 0.0 29.3077 -28.9002 -3.03684 -14.6191 0.320917 2.21444 13.8104 28.9563 -2.07782 37.3776 -0.0 -0.0 -0.0 0.0 -0.0 21.1961 20.1413 -1.27591 -34.8199 0.170515 -5.25968 8.55713 -9.70713 1.22282 24.3007 -0.0 -0.0 0.0 0.0 0.0 
